<svg xmlns="http://www.w3.org/2000/svg" version="1.1" xmlns:xlink="http://www.w3.org/1999/xlink" xmlns:svgjs="http://svgjs.com/svgjs" height="245.00000000000003" width="245.00000000000003"><defs id="SvgjsDefs1969"></defs><g id="SvgjsG1970" transform="translate(0,0) scale(4.9)" rel="inversefill" name="filled_container" xmlns:name="filledContainer_inversefill" fill="#646464"><path d="M5,0H50a0,0,0,0,1,0,0V45a5,5,0,0,1-5,5H0a0,0,0,0,1,0,0V5A5,5,0,0,1,5,0Z" fill="#646464" style="fill: rgb(100, 100, 100);"></path></g><g id="SvgjsG1971" rel="mainfill" name="main_text" xmlns:name="main_text" fill="#ffffff" transform="translate(30.295004367828383,-71.52999877929686)"><path d="M83.31 174.47C83.31 210.37 65.53 226.45 29.46 226.45L29.29 227.98C33.70 234.58 35.90 234.75 35.90 243.56C35.90 251.85 32.34 256.93 23.71 256.93C13.55 256.93 10.33 249.65 10.33 240.51L10.33 239.49C10.33 234.92 10.16 232.72 14.73 229.50C15.92 228.82 16.93 228.32 17.78 227.47C17.78 221.54 11.35 221.03 11.35 213.25C11.35 209.69 12.53 206.30 15.75 204.27L15.75 198.51C15.75 187.68 15.24 177.18 14.73 166.34C13.89 164.82 13.55 163.12 13.55 161.26L14.73 152.62C8.47 150.59 6.10 145.51 6.10 138.91C6.10 132.81 8.64 129.09 15.24 129.09C20.83 129.09 24.21 133.15 26.25 137.89C30.99 136.03 47.41 130.61 52.32 130.61C56.22 130.61 59.94 131.29 63.16 133.83C67.39 137.22 71.46 141.11 74.68 145.34C79.59 152.12 83.31 166.00 83.31 174.47ZM64.35 174.47C64.35 167.70 58.42 149.41 49.95 149.41C41.49 149.41 30.65 156.01 26.08 163.29L26.08 175.82C26.08 178.87 26.25 202.75 27.26 203.25L28.45 204.27C29.80 204.78 31.33 204.61 32.68 204.61C53.17 204.61 64.35 195.47 64.35 174.47ZM178.31 146.87C178.31 152.79 173.90 155.00 168.65 155.84L168.65 161.09C168.65 167.86 169.16 174.47 169.67 181.07C171.87 183.27 172.04 188.35 172.04 191.23L172.04 192.59C172.04 198.01 172.04 200.21 165.10 200.21C161.03 200.21 157.14 199.02 157.14 194.28C157.14 192.59 158.83 186.49 159.34 184.29C159.51 182.43 160.70 181.58 162.05 180.40L162.39 180.06L162.39 175.32C162.39 168.71 162.05 162.28 161.37 155.84L146.47 155.84L141.22 238.98L154.94 242.03C158.49 242.71 159.51 245.76 159.51 248.97C159.51 255.75 152.06 256.93 146.64 256.93L133.43 255.75C129.20 255.75 121.07 258.97 114.13 258.97C109.39 258.97 106.34 257.27 106.34 252.02C106.34 247.62 115.15 243.22 118.19 241.02C121.41 230.52 122.94 206.47 122.94 194.79L122.94 190.56L126.66 158.04C126.83 156.52 127.68 155.33 127.68 153.81L127.68 152.62C121.41 151.78 115.15 151.61 108.54 151.61C106.68 151.61 105.16 151.61 103.63 151.78L102.45 152.62C101.77 153.30 101.26 166.17 101.26 168.03C101.26 169.56 101.26 170.91 101.43 172.78C103.63 174.64 105.66 176.84 105.66 180.06C105.66 184.97 104.82 193.94 98.21 193.94C92.79 193.94 91.78 188.02 91.78 183.61C91.78 179.55 92.79 175.32 96.18 172.78C96.86 167.19 97.20 161.60 97.20 155.84C97.20 153.98 97.20 152.62 97.03 150.76C93.47 148.22 87.71 145.51 87.71 140.60C87.71 137.38 90.42 135.35 92.96 133.83L134.96 133.83C137.50 133.83 143.25 135.35 146.47 135.86C151.21 136.37 155.95 136.71 160.70 136.88L164.76 136.71C165.61 136.71 166.45 136.88 167.64 137.05C172.38 137.89 178.31 141.62 178.31 146.87Z" fill="#ffffff" style="fill: rgb(255, 255, 255);"></path></g></svg>