<svg xmlns="http://www.w3.org/2000/svg" version="1.1" xmlns:xlink="http://www.w3.org/1999/xlink" xmlns:svgjs="http://svgjs.com/svgjs" height="271.44399642944336" width="277.1736145019531"><defs id="SvgjsDefs10016"></defs><g id="SvgjsG10017" rel="mainfill" name="main_text" xmlns:name="main_text" transform="translate(47.61680793762207,-80.92800331115723)" fill="#3498DB"><path d="M5.16 215.87Q5.23 215.19 5.83 215.19Q6.20 215.19 6.46 215.45Q6.72 215.72 6.72 216.09Q6.72 218.18 6.35 220.39Q5.98 222.59 5.98 224.76Q5.98 226.33 6.16 228.23Q6.35 230.14 6.84 231.82Q7.32 233.50 8.26 234.66Q9.19 235.82 10.76 235.82Q11.96 235.82 13.08 235.33Q14.20 234.84 15.28 234.10Q16.36 233.35 17.30 232.49Q18.23 231.63 19.05 230.81Q19.28 230.59 19.58 230.59Q19.95 230.59 20.21 230.85Q20.47 231.11 20.47 231.48Q20.47 231.78 20.25 232.00Q19.43 232.83 18.27 233.76Q17.11 234.69 15.84 235.52Q14.57 236.34 13.19 236.90Q11.81 237.46 10.54 237.46Q8.82 237.46 7.62 236.26Q6.43 235.07 5.68 233.24Q4.93 231.41 4.63 229.20Q4.33 227.00 4.33 225.06Q4.33 222.67 4.60 220.35Q4.86 218.03 5.16 215.87M6.72 206.45Q6.58 206.53 6.43 206.53Q6.05 206.53 5.87 206.26Q5.68 206.00 5.68 205.70Q5.68 205.40 5.87 205.18Q6.05 204.96 6.28 204.81Q6.50 204.66 6.69 204.51Q6.87 204.36 6.87 204.06Q6.87 203.46 6.28 202.83Q5.68 202.19 5.68 201.82Q5.68 201.00 6.50 201.00Q6.80 201.00 7.17 201.33Q7.55 201.67 7.85 202.12Q8.14 202.57 8.33 203.09Q8.52 203.61 8.52 204.06Q8.52 204.96 8.00 205.55Q7.47 206.15 6.72 206.45ZM47.52 220.20Q47.37 221.02 46.55 221.02Q45.88 221.02 45.88 220.35Q45.88 219.75 45.95 219.15Q46.03 218.56 46.03 217.96Q45.95 216.31 45.47 214.60Q44.98 212.88 44.05 211.42Q43.11 209.96 41.62 209.03Q40.12 208.09 38.03 208.09Q36.01 208.09 34.71 209.48Q33.40 210.86 33.40 213.92Q33.40 217.36 35.23 220.65Q37.06 223.94 39.08 227.15Q39.83 227.30 39.83 228.04Q39.83 228.12 39.79 228.19Q39.75 228.27 39.75 228.34Q41.25 230.73 42.25 232.98Q43.26 235.22 43.26 237.68Q43.26 240.75 40.80 242.20Q38.33 243.66 34.89 243.66Q33.40 243.66 31.98 243.36Q30.56 243.06 29.48 242.43Q28.39 241.79 27.72 240.82Q27.05 239.85 27.05 238.58Q27.05 236.86 27.98 235.11Q28.92 233.35 30.37 231.78Q31.83 230.21 33.70 229.05Q35.57 227.90 37.43 227.45Q36.46 225.88 35.45 224.20Q34.45 222.52 33.62 220.76Q32.80 219.00 32.28 217.14Q31.76 215.27 31.76 213.25Q31.76 210.41 33.51 208.39Q35.27 206.38 38.11 206.38Q40.50 206.38 42.29 207.50Q44.08 208.62 45.24 210.37Q46.40 212.13 47.00 214.26Q47.60 216.39 47.60 218.48Q47.60 218.93 47.60 219.34Q47.60 219.75 47.52 220.20M39.08 230.14Q38.93 229.84 38.74 229.54Q38.56 229.24 38.33 228.87Q36.84 229.24 35.12 230.14Q33.40 231.03 31.98 232.30Q30.56 233.57 29.63 235.11Q28.69 236.64 28.69 238.28Q28.69 240.30 30.60 241.20Q32.50 242.09 34.82 242.09Q37.96 242.09 39.83 240.93Q41.69 239.78 41.69 237.46Q41.69 235.52 40.76 233.50Q39.83 231.48 39.08 230.14ZM54.55 234.10Q54.25 234.40 53.95 234.40Q53.57 234.40 53.35 234.13Q53.13 233.87 53.13 233.50Q53.13 233.28 53.42 232.83Q53.72 232.38 54.13 231.93Q54.55 231.48 54.99 231.00Q55.44 230.51 55.74 230.14Q53.28 226.55 51.86 222.63Q50.44 218.70 50.44 214.97Q50.44 211.53 51.74 208.66Q53.05 205.78 55.37 203.69Q57.68 201.59 60.90 200.40Q64.11 199.20 67.85 199.20Q68.82 199.20 69.86 199.43Q70.91 199.65 71.69 200.14Q72.48 200.62 73.00 201.44Q73.52 202.27 73.52 203.46Q73.52 206.38 71.96 209.81Q70.39 213.25 68.03 216.84Q65.68 220.42 62.95 223.90Q60.22 227.37 57.83 230.21Q60.60 233.95 64.41 236.45Q68.22 238.95 72.70 238.95Q74.94 238.95 76.89 238.21Q78.83 237.46 80.51 236.11Q82.19 234.77 83.61 232.94Q85.03 231.11 86.15 229.02Q86.38 228.57 86.75 228.57Q87.12 228.57 87.38 228.83Q87.65 229.09 87.65 229.46Q87.65 229.69 87.57 229.84Q86.30 232.15 84.73 234.13Q83.16 236.11 81.26 237.57Q79.35 239.03 77.19 239.85Q75.02 240.67 72.63 240.67Q68.07 240.67 63.96 238.09Q59.85 235.52 56.71 231.48Q56.11 232.23 55.59 232.86Q55.07 233.50 54.55 234.10M52.08 215.04Q52.08 218.11 53.31 221.73Q54.55 225.35 56.79 228.79Q58.13 227.15 59.40 225.54Q60.67 223.94 61.94 222.22Q62.69 221.25 64.30 219.08Q65.90 216.91 67.55 214.33Q69.19 211.76 70.42 209.10Q71.66 206.45 71.66 204.43Q71.66 202.86 70.72 201.93Q69.79 201.00 67.47 201.00Q63.81 201.00 60.93 202.19Q58.06 203.39 56.11 205.37Q54.17 207.35 53.13 209.89Q52.08 212.43 52.08 215.04ZM112.90 222.52Q113.20 222.22 113.57 222.22Q113.95 222.22 114.21 222.40Q114.47 222.59 114.47 222.89Q114.47 223.19 114.02 223.86Q113.57 224.53 113.28 224.98Q113.72 226.55 114.36 228.68Q114.99 230.81 115.74 232.71Q116.49 234.62 117.35 235.97Q118.21 237.31 119.10 237.31Q119.78 237.31 120.22 236.75Q120.67 236.19 121.05 235.48Q121.42 234.77 121.68 234.21Q121.94 233.65 122.32 233.65Q122.62 233.65 122.91 233.91Q123.21 234.17 123.21 234.62Q123.21 235.07 122.84 235.82Q122.47 236.56 121.87 237.27Q121.27 237.98 120.56 238.51Q119.85 239.03 119.18 239.03Q117.61 239.03 116.45 237.65Q115.29 236.26 114.51 234.32Q113.72 232.38 113.20 230.29Q112.68 228.19 112.23 226.70Q111.03 228.87 109.65 231.07Q108.27 233.28 106.51 235.07Q104.76 236.86 102.63 238.02Q100.50 239.18 97.81 239.18Q96.16 239.18 94.97 238.36Q93.77 237.53 92.99 236.15Q92.20 234.77 91.83 232.98Q91.46 231.18 91.46 229.24Q91.46 225.80 92.24 222.59Q93.03 219.38 94.37 216.91Q95.72 214.45 97.51 212.95Q99.30 211.46 101.32 211.46Q103.49 211.46 105.32 212.54Q107.15 213.62 108.61 215.34Q110.06 217.06 111.07 219.08Q112.08 221.10 112.60 222.89Q112.83 222.67 112.90 222.52M104.61 234.62Q106.92 232.45 108.42 229.84Q109.91 227.22 111.56 224.61Q110.96 222.81 110.02 220.83Q109.09 218.85 107.78 217.14Q106.48 215.42 104.91 214.30Q103.34 213.18 101.47 213.18Q99.45 213.18 97.88 214.82Q96.31 216.46 95.27 218.93Q94.22 221.39 93.70 224.31Q93.18 227.22 93.18 229.69Q93.18 233.95 94.63 235.67Q96.09 237.38 98.33 237.38Q99.90 237.38 101.58 236.64Q103.26 235.89 104.61 234.62ZM127.62 214.45L127.62 214.30Q127.62 213.92 127.88 213.70Q128.14 213.47 128.44 213.47Q128.82 213.47 129.19 214.63Q129.56 215.79 129.90 217.58Q130.24 219.38 130.57 221.58Q130.91 223.79 131.17 225.92Q131.43 228.04 131.62 229.80Q131.81 231.56 131.96 232.53Q132.55 230.44 133.56 227.93Q134.57 225.43 136.03 223.26Q137.48 221.10 139.35 219.64Q141.22 218.18 143.54 218.18Q146.00 218.18 147.72 219.38Q149.44 220.57 150.64 222.52Q151.83 224.46 152.50 226.89Q153.18 229.32 153.59 231.82Q154.00 234.32 154.15 236.64Q154.30 238.95 154.45 240.60Q154.45 241.42 153.70 241.42Q153.33 241.42 153.06 241.20Q152.80 240.97 152.80 240.60Q152.58 237.76 152.28 234.99Q151.98 232.23 151.31 229.46Q150.93 228.12 150.41 226.44Q149.89 224.76 148.99 223.34Q148.09 221.92 146.82 220.95Q145.55 219.98 143.69 219.98Q141.22 219.98 139.20 222.03Q137.19 224.08 135.73 227.07Q134.27 230.06 133.45 233.42Q132.63 236.79 132.55 239.48Q132.40 240.30 131.73 240.30Q131.43 240.30 131.17 240.07Q130.91 239.85 130.91 239.48Q130.46 233.13 129.68 226.92Q128.89 220.72 127.62 214.45ZM159.98 226.48Q159.98 224.46 160.31 222.25Q160.65 220.05 161.32 218.03Q161.99 216.01 163.08 214.45Q164.16 212.88 165.65 212.13L165.65 210.49Q165.65 207.80 165.92 204.96Q166.18 202.12 166.85 199.39Q167.52 196.66 168.72 194.23Q169.91 191.81 171.78 189.86Q172.00 189.64 172.38 189.64Q173.20 189.64 173.80 190.68Q174.40 191.73 174.81 193.37Q175.22 195.02 175.48 197.04Q175.74 199.05 175.85 201.00Q175.97 202.94 176.00 204.62Q176.04 206.30 176.04 207.20Q176.04 208.24 175.97 210.67Q175.89 213.10 175.67 216.24Q175.89 216.61 175.89 216.76Q175.89 216.99 175.59 217.43Q175.29 220.80 174.73 224.27Q174.17 227.75 173.13 230.81Q173.57 231.26 174.32 231.74Q175.07 232.23 175.78 232.75Q176.49 233.28 177.05 233.65Q177.61 234.02 177.61 234.25Q177.61 234.55 177.35 234.81Q177.09 235.07 176.71 235.07Q175.67 235.07 174.43 234.10Q173.20 233.13 172.53 232.45Q171.41 235.07 169.80 236.64Q168.19 238.21 165.95 238.21Q164.46 238.21 163.37 237.20Q162.29 236.19 161.51 234.58Q160.72 232.98 160.35 230.85Q159.98 228.72 159.98 226.48M171.11 231.03Q169.69 229.32 168.72 227.22Q167.75 225.13 167.15 222.89Q166.55 220.65 166.21 218.41Q165.88 216.16 165.73 214.00Q164.53 214.89 163.79 216.54Q163.04 218.18 162.59 220.05Q162.14 221.92 161.99 223.79Q161.84 225.65 161.84 227.00Q161.84 228.49 162.03 230.21Q162.22 231.93 162.74 233.39Q163.26 234.84 164.08 235.82Q164.91 236.79 166.25 236.79Q167.97 236.79 169.13 234.99Q170.29 233.20 171.11 231.03M167.97 211.53Q169.76 211.53 171.33 212.43Q172.90 213.33 174.17 214.60Q174.40 210.93 174.40 207.20Q174.40 205.26 174.32 203.31Q174.25 201.37 174.02 199.43Q173.80 197.71 173.54 195.58Q173.28 193.45 172.30 191.81Q170.81 193.60 169.84 195.80Q168.87 198.01 168.31 200.40Q167.75 202.79 167.52 205.26Q167.30 207.72 167.30 210.04L167.30 211.61Q167.52 211.53 167.97 211.53M167.37 213.33Q167.52 217.21 168.46 221.47Q169.39 225.73 171.78 229.09Q172.68 226.10 173.16 223.00Q173.65 219.90 173.95 216.76Q172.68 215.34 171.18 214.30Q169.69 213.25 168.04 213.25Q167.90 213.25 167.71 213.29Q167.52 213.33 167.37 213.33Z" fill="#3498DB" style="fill: rgb(52, 152, 219);"></path></g><g id="SvgjsG10018" transform="translate(0.06530611962080002,-0.23786798119544983) scale(2.5)" rel="mainfill" name="outline_container" xmlns:name="outlineContainer_mainfill" fill="#3498DB"><g fill="#3498DB"><path fill-rule="evenodd" d="M.3 40.4zM3.1 49c.1-.2 0-.3 0-.5s-.1-.2-.2-.1-.5.7-.2 1.1a.2.2 0 0 1 0 .3h-.1c-.1.3.3.7-.2 1a2.7 2.7 0 0 1 .2 1c.1.1.1-.1.2-.1s0-.4 0-.6a.9.9 0 0 1 .3-.7.3.3 0 0 0-.1-.4v-.2c.4-.3-.1-.6.1-.8zM3 33.7zM.6 48.7H.4c.1.4-.4.5-.4.8s-.2.4.1.5h.5c-.1-.3.1-.5.1-.8-.1-.2.1-.5-.1-.5zM1 46.4c-.1-.2-.3 0-.4 0s-.1.5.1.7.4 0 .2-.2-.1-.4.1-.5zM2.3 50.9H2a.3.3 0 0 0-.2.4H2a.4.4 0 0 0 .3-.3.7.7 0 0 0 0-.1zM37.1 103.3h-.6c-.2.3.1.2.2.4s.2.2.4.2.3-.5 0-.6zM32.4 103.9c-.2-.1-.4 0-.5.2a.2.2 0 0 0 .1.2h.5c-.2 0 0-.2-.1-.4z" fill="#3498DB" style="fill: rgb(52, 152, 219);"></path><path d="M35.3 103.1c.2-.1.4-.1.2-.4h-.1a4.3 4.3 0 0 0-1.4-.7c-.1-.1-.2-.1-.2-.3s-.3-.2-.5 0a.9.9 0 0 1-.7-.5h-.1c0-.2-.2-.3-.3-.4s-.8-.2-1.2-.2-.1-.4-.4-.3h-.1c-.2.1-.4-.1-.6 0-.2-.2-.1-.5-.5-.5h-.2a4.1 4.1 0 0 0-1.5-.7h-.1a.4.4 0 0 0-.4-.1c-.1 0-.3 0-.4-.1l-.2-.2a.5.5 0 0 0-.4-.3H26V98l-.4-.2c-.2 0-.3.1-.1.3l.2.2h.4a.2.2 0 0 0 0 .2h.2c0 .4.3.7.3 1.1s.1.2.3.1l.2-.3c0-.1-.2-.3.1-.3a.2.2 0 0 1 .2.3c-.1.3.1.2.3.2h.4c.2.2.5.2.7.4-.1.1-.3.1-.2.4h.4c.2.2.3.2.4 0s.6.1.8.4h.4c-.2.5.4.6.4 1h.3c.1 0 .3.1.3-.1s-.2-.4-.2-.6.3.3.6.2.2-.3.1-.4h.2a.2.2 0 0 0 0 .1c.1.3.6.3.5.7s-.1.2 0 .3c.1.1.1.1.1.2v-.2h-1a.5.5 0 0 0-.6.1c0 .1 0 .3-.1.4a.4.4 0 0 0-.1.5c.1.3-.1.4-.4.4s-.1.3 0 .5a4.5 4.5 0 0 1 .4.9H31a.2.2 0 0 0-.2-.2 2 2 0 0 1-1-.3h-.1c-.3 0-.4-.2-.6-.4H29a.3.3 0 0 0 0 .4c0 .2 0 .4.3.4s.5 0 .6.3h.1c.2.2.5.1.7.2h.1c.2.3.6.2.8.5a2 2 0 0 1 1 .3l.4.2a.5.5 0 0 0 .1-.4c-.1-.2-.2-.5-.5-.4s-.3-.1-.2-.3-.1-.2-.2-.3-.1-.2-.2-.2-.4.1-.6.2h-.2a1.2 1.2 0 0 0 0-.8c-.1-.3.1-.3.3-.2v-.2a5.1 5.1 0 0 1 .1-.7c0-.1 0-.2.1-.3h.6c.1.3 0 .8.6.9h.2c0-.2-.3-.3-.1-.5s.3.3.5.2 0-.4-.1-.5.1-.4.1-.6.3.6.7.7v-.3l.3-.3c.3 0 .5.3.8.4-.1.5 0 .6 0 .5zm-1.8-.8z" fill-rule="evenodd" fill="#3498DB" style="fill: rgb(52, 152, 219);"></path><path d="M31.8 104.4c0-.1-.1-.2-.2-.1s-.1.2-.1.2.2 0 .3-.1zM110.7 57.9c0-.2-.3-.2-.4-.3l-.2-.3a2.2 2.2 0 0 0-1.1-.6.4.4 0 0 1-.2-.6 2.8 2.8 0 0 1 .4-.9V55l-.3-.5c-.1-.1 0-.3-.1-.5v-.2c-.1-.1-.1-.2-.2-.3h-.1a14.1 14.1 0 0 1-.1-2.3 2.6 2.6 0 0 0-.2-1.8 4.6 4.6 0 0 1-.2-1.4c0-.4-.3-.6-.3-.9s-.1-1.8 0-2.8V44l-.2-1.2a.6.6 0 0 0 .1-.8l-.2-.3h-.1l-.2-.4c-.8-.9-.8-1-.1-1.9h.3c.2 0 .3-.1.3-.3s.4-.5.8-.4.2.1.3 0 0-.2-.1-.3-.2-.3-.2-.4-.1-.4-.4-.4h-.7c-.1-.1-.3-.1-.1-.3s.2-.3 0-.4l-.2-.2a1 1 0 0 1 0-1h-.1c-.4-.6-.5 0-.6.2-.2.2-.3.5-.7.5l-.5.2c-.3 0-.5-.2-.5-.4v-1.8a3.4 3.4 0 0 1-.1-.9v-.2c-.1-.6-.1-.6-.7-.6h-.1c-.1-.1 0-.2 0-.3a.8.8 0 0 0-.3-.8c-.1-.5-.6-.8-.6-1.3h-.1l-.2-.3a.8.8 0 0 1 0-.8.3.3 0 0 0 0-.4.5.5 0 0 0-.2-.4c-.2 0-.3-.1-.5-.2-.3-.2-.2-.6-.3-.8h-.2c-.1-.3-.6-.4-.6-.8a12.6 12.6 0 0 1-.9-1.4c-.1-.3-.1-.7-.4-1-.1-.1-.1-.3-.2-.4a.2.2 0 0 1-.1-.2 8.9 8.9 0 0 0-.4-1.5c-.1-.2-.1-.5-.5-.3s-.9 0-1.2-.5a2.6 2.6 0 0 1-.6-.8.6.6 0 0 0-.6-.4 4.6 4.6 0 0 1-.8-1c-.1-.1-.1-.3-.2-.3 0-.3-.3-.5-.5-.7 0-.2-.2-.3-.4-.4-.3-.2-.3-.7-.6-1a.8.8 0 0 0-.2-.6 6 6 0 0 1-.7-1.6l-.3-.2a.8.8 0 0 1-.8-.4h-.2a.3.3 0 0 0-.3-.1 1.4 1.4 0 0 1-1.1-.2c-.4 0-.5-.5-.9-.5a.6.6 0 0 1-.5-.2h-.1c0-.2.1-.4-.2-.4s-.5-.2-.7-.4-.5-.6-.4-1.1-.1-.2-.3-.1a.5.5 0 0 0-.4-.2c-.6-.1-1.1-.2-1.3-.9h-.3c-.4 0-.4-.4-.6-.7s0-.4-.3-.5a.7.7 0 0 0-.8.1c-.3.1-.6.1-.7-.2-.1-.3-.4-.3-.6-.6-.2-.3-.8-.2-1.2.1s-.4-.2-.6.1a.9.9 0 0 1-.8.3l-.9.2h-.6a14.6 14.6 0 0 1-1-1.6.8.8 0 0 0-.7-.2c-.4.1-.4-.4-.4-.7s-.3-.1-.4.1c-.3.1-.5-.1-.7-.3h-.1a1.9 1.9 0 0 0-1 0h-.5a3.7 3.7 0 0 0-1.7 0h-.1c-.3-.4-.8-.4-1.2-.8-.4 0-.6-.3-.6-.7s-.8-.2-1.2-.4a1.5 1.5 0 0 0-.9-.3h-.1c-.2-.4-.4-.4-.8-.1l-1.7.3h-.2c-.3.1-.4-.2-.7-.2h-.1c-.1-.1-.3 0-.4-.1s-.3-.1-.5 0-.5-.4-.6-.7l-.2-.3c0-.2-.1-.4-.1-.6s0-.4-.3-.5h-.1c-.4-.3-.7 0-1.1.1v.3a.5.5 0 0 0-.1.4c.1.4-.2.5-.5.4a8.6 8.6 0 0 1-1.7-.1c-.2 0-.3-.1-.5.1h-.4a.7.7 0 0 1-.9-.2.5.5 0 0 0-.6-.2.5.5 0 0 0-.4.2c-.2.1-.3.1-.4-.1s-.3-.4-.6-.1a.8.8 0 0 1-1.2.1h-.2c-.6-.1-1.2-.6-1.9-.3h-.4l-.5.2a1.5 1.5 0 0 1-1 .4h-.2c-.1 0-.2-.1-.3 0a.8.8 0 0 1-1 .4h-.1c-.3.2-.5 0-.6-.2s-.6 0-.6.1-.5.3-.8.3h-.3a4.4 4.4 0 0 1-2 .3h-.2a.6.6 0 0 0-.6.2c-.3.4-.6.1-.8 0s-.2-.3-.1-.5a1.7 1.7 0 0 0 0-.3c0-.3.5-.7-.1-1s-.4-.4-.3-.7.1-.6-.5-.7c-.3-.1-.6-.3-.9 0S39 0 38.9.3l-.4.7c-.3.1-.6 0-.8.2a.8.8 0 0 1-.7.3h-.1c-.6.3-.7 1-1.1 1.4s-.2.5-.2.7c-.1.3.2.6.2.9s.3.7-.3.9l-.2.2h-.1l-.2.3h-.4a1.2 1.2 0 0 1-.8.4h-.1c-.1.1-.2.2-.2.4s-.3.2-.4.3l-1 .4H32c-.2.1-.5.1-.7.4-.1.3-.4.3-.6.4s-.9.2-1.2.7l-.3.2h-.8c-.1 0-.2 0-.3.2s-.3 0-.4.2h-.1c-.1.2-.2.2-.4.2a.3.3 0 0 0 0 .1l-.2.2h-.3c-.3.1-.4.4-.6.6-.2.2-.5.2-.5.5l-.3.2c-.6-.1-1 .3-1.5.4l-.5.3h-.1c-.2-.1-.4.2-.6.2l-.5.5c0 .2-.2.3-.4.5h-.1a1.6 1.6 0 0 0-.1.6h-1l-.4.3-.3.3c-.2 0-.1.2-.2.3l-.2.2c-.2-.1-.2.1-.3.2l-.4.4h-.1c-.1.2-.3.3-.5.4v.2l-.5.2c-.1.1-.2 0-.2.2h-.2v.3h.2c.1.2.3.2.5.2a1.1 1.1 0 0 0 .5-.4.4.4 0 0 1 .7 0c.2.4.4.1.6 0s.1-.2 0-.3l-.3-.4c.2-.1.4 0 .6 0s.3 0 .2-.2-.1-.2.1-.2.2 0 .2.2 0 .3.2.2l.2.3a.2.2 0 0 0-.2.3c-.3.1-.4.3-.3.6s0 .1 0 .2h-.2c-.1-.1-.3-.2-.2-.4s0-.2-.1-.2-.3 0-.3.2a3.9 3.9 0 0 0 0 .4h.1a1.1 1.1 0 0 1-.9 1.1c0 .2.1.4.3.2l.2-.2a.8.8 0 0 0 0 .3c-.5 0-.7.2-.6.7a.4.4 0 0 1-.2.5c-.2.1-.4 0-.5-.1s-.2-.3-.4-.3h.2c.5 0 .5-.4.5-.8s-.1-.3-.3-.1-.1.3-.2.2 0-.2 0-.2-.3-.1-.4.1a1.4 1.4 0 0 0-.4.6 1.2 1.2 0 0 1 0 .2c0 .1 0 .1.1.2h-.2c-.1.1-.1.3-.3.2s-.2.2-.1.3.2.5.3.7c-.1.1 0 .2-.2.2s-.2-.3-.4-.3a.3.3 0 0 1 .1-.2c.1-.1.3-.1.2-.3s-.2-.1-.3-.1H16c-.4 0-.3.4-.6.5s.1.3.2.4a1.1 1.1 0 0 0 1 .6.3.3 0 0 1-.4 0l-.5-.5c-.1-.1-.2-.2-.3-.1a1.2 1.2 0 0 0-.3.8c.1.3.4.1.5.1h.1a.9.9 0 0 1 0 .3c0-.2-.1-.3-.2-.3s-.4-.2-.6-.3h-.1c-.1.1-.1.3-.2.4h-.1c-.1.1-.2.3-.1.5a.3.3 0 0 0 .5.1c.2-.1.4.1.6.1-.1 0-.2-.2-.4-.1s-.1.3 0 .4a.5.5 0 0 1-.1.5h-.1a1.6 1.6 0 0 0-.1-.4.4.4 0 0 0-.3-.3c-.1 0-.2.1-.2.2s-.3.2-.5.2h-.3v.2H13c-.1 0-.2-.1-.3 0s0 .2.1.3l.3.2c.3.1.4-.3.6-.2s-.4.1-.3.4-.1.3-.3.2H13c-.2.1-.4 0-.6-.2a.7.7 0 0 0 .3.7.2.2 0 0 0-.1.2c-.2.1-.4.1-.5-.2s-.5.3-.5-.1c.1-.2.4-.1.3-.4s-.3.2-.3.4h-.1c-.6.4-.5.7.2 1.2l-.4-.3-.2-.2c-.1-.1-.2-.3-.3-.2s-.2.2-.1.4l.2.3a.6.6 0 0 0 .5.5l.4.2-.8.9h.1c.3-.6-.6-.3-.5-.8h-.3l-.2.2v.2a1.5 1.5 0 0 1 .4-1 .8.8 0 0 0 0-.1c-.2-.1-.3-.3-.5-.1l.3-.3c.1-.1 0 .3.2.3 0-.3.5-.4.3-.8s-.1.3-.4.3.2-.2 0-.3.3-.7.2-1.1.1.4.5.3.2.2.1.3-.3.2-.2.3.3-.1.4-.2.1-.2.1-.4 0-.4.2-.5h.2c.2-.2.1-.6.3-.8s.3-.9.2-1.4.5-.4.7-.6c.1 0 .3 0 .4.1s-.2.2-.2.4h-.1c0 .2 0 .4.3.4h.2c.1-.1 0-.3.1-.4s.2-.5 0-.6h.3c.1.2.2.2.4.1s.2-.3.1-.4h.1c.2 0 .3.3.5 0s-.1-.4-.2-.5c.1-.3.2-.7.7-.3h.1c-.2-.1-.5-.2-.5-.5h.5c.4-.1.4-.1.6.2h.1c.1-.4.2-.8.6-1s.1.3.3.1l.5-.4.2.2c.2 0 .1-.1.1-.2a.6.6 0 0 1-.1-.4.7.7 0 0 1-.7-.1h-.2l-.2.2c-.4.5-1.1.4-1.5.8v.2c-.3 0-.4.3-.6.5a.4.4 0 0 0-.2.3l-.7.2-.5.4h-.3l-.2.2c-.2 0-.2.2-.3.3l-.3.3h-.1l-.3.4c-.2.1-.2.2-.3.4a.7.7 0 0 0-.2.4l-.5.3c-.2.1-.2.3-.3.5s-.2.1-.2.2v.2l-.2.3h-.5c-.1.1-.1.2-.1.3l-.4.2c-.1.1-.2 0-.2.2H9l-.2.2-.3.6c-.1.1 0 .3-.1.5l-.2.4c-.2.2-.5.1-.7.4s-.2.2-.2.4h-.1v.2h-.4c-.2 0-.2.1-.3.2-.1.2-.3.4-.1.6s-.1.2-.1.3l-.2.4H6c-.1.2-.3.2-.4.4l-.2.2c-.3.2-.2.5-.4.8s-.1.2-.1.3-.2.4-.3.6-.3.2-.3.4h-.1l-.2.4a1.7 1.7 0 0 0-.7.8.2.2 0 0 0 0 .3c-.2 0-.2.2-.3.3l-.2.5-.4.9c-.2.1-.1.5-.3.6s-.3.3-.3.6l-.2.5h-.1c-.1.1-.3.2-.4.4s-.1.3-.2.5l-.2.2a.5.5 0 0 0-.1.3c-.1.1 0 .2 0 .3a2.7 2.7 0 0 1-.1.8v.2c-.1.3 0 .6-.2.9s0 .6-.1.9v.4c-.1.2.1.3.1.5s-.2.2-.2.4a1.5 1.5 0 0 0 0 .8l.2.5a1.7 1.7 0 0 1 .5.9 1.2 1.2 0 0 0-.2.6H.5a1.6 1.6 0 0 0 .1.7c.3-.3.1-.5 0-.7l.4-.2c0-.5.1-1-.2-1.4.1-.1.1-.2 0-.3a.5.5 0 0 1 .1-.6c0-.1-.1-.2-.1-.3s.2-.4-.1-.6-.2-.1-.1-.3H1c.2 0 .3.1.5 0l.2-.3c.2.1.5.6.5-.2s.1.2.2.2.1.2.2.2-.1-.1 0-.2-.3-.4-.3-.7-.2-.2-.4-.4.2-.4 0-.6l-.2-.3H2c.1-.2.1-.6.5-.3s.2.1.2 0-.1-.1-.1-.2-.4-.4-.4-.7a4.1 4.1 0 0 0 0-1.2v-.2l.2-.4a.3.3 0 0 1 .1.2c.2.3.4.7.9.7s.2 0 .1.1 0 .4-.1.6-.1.3.1.3.2-.1.2-.3a.3.3 0 0 1 0-.3c.1-.1.1 0 .2.1a2.8 2.8 0 0 0 .4.9 1.3 1.3 0 0 1 .2 1h.2a.6.6 0 0 1 .1-.4c.1-.1.2-.1 0-.3s.3-.6.1-.9H5c.4-.1.5 0 .4.4s0 .3.2.3.3 0 .3-.3-.4-.7-.5-1.1h.1l-.2.2c.1-.4-.4-.3-.5-.5a.2.2 0 0 1 .1-.2h.3c.2-.3.4-.5 0-.8s0-.4-.3-.3-.1.3 0 .4a.6.6 0 0 1 0 .2c-.3 0-.7-.2-1 .2s.2-.3 0-.5a.6.6 0 0 0-.3.5.3.3 0 0 1-.1-.4c.2-.2-.1-.3-.1-.5v-.2h.1c.2-.3-.1-.5-.2-.7s.4.1.4-.3a.7.7 0 0 1 .1-.4c.1-.2.1-.4-.2-.4.4 0 .7-.1.6-.6s0-.1.1-.1.6-.2.9-.1-.2.4-.1.7.1-.7.5-.8-.8-.4-.8-.6v-.4a.3.3 0 0 0 .4.2c.1 0 .1-.1.1-.2s-.2-.3.1-.3a.5.5 0 0 1 .5.2 1.1 1.1 0 0 1 .1.8c-.1.2-.1.5.2.6s.8-.3.7-.5 0-.8-.4-1-.2-.6-.4-.8a.6.6 0 0 1-.3-.5l.4-.3c.2 0 .2.1.3-.1s-.1-.1-.2-.1h-.1v-.2h.3c0-.1 0-.2.2-.2l.2.2a1.9 1.9 0 0 0 0 .3c0 .1.1.3.3.3s.3-.1.2-.3a1.4 1.4 0 0 0-.1-1.1h.1c.6 0 .3-.6.5-.8s.4.6.1 1a.2.2 0 0 0 .1.3c.2.1.2 0 .3-.1l.2-.3h.2c.1 0 .2-.1.1-.2h-.3a1 1 0 0 1 0-1h.1a.5.5 0 0 0 .3-.5l.4.2c-.1 0-.1.1.1.1s.3.2.1.3-.2.4-.3.6h-.1c-.1.1-.2.2 0 .2a.3.3 0 0 0 .3-.3.2.2 0 0 1 .1-.2c.1.1.1.2.3.2h.1c0 .3.4.2.4.5s-.3-.4-.5 0a1.4 1.4 0 0 0 0 .3c0 .3.2.3.4.3h.2c.3 0 .4.1.3.4s-.4.3-.4.5-.1.3-.2.2 0-.2 0-.4l.2-.3c.1-.2.2-.4 0-.5-.3 0-.4.3-.6.5l-.4.9-.2-.5H9c-.2-.1-.2.2-.3.3.1.1.5.1.2.4s-.3.3-.1.4.2-.1.3-.2v-.2a1.9 1.9 0 0 1 .1.9 1.2 1.2 0 0 0-.1.4.3.3 0 0 0 .2.3c.2 0 .2-.1.2-.2a1.2 1.2 0 0 0 .1-.7h.1l.4.2c-.5.3-.5.8-.6 1.2s-.2 0-.2-.2a.3.3 0 0 0-.3-.2c.1.2-.1.2-.2.2v.2c.1.2.2.5.4.7s.1.1 0 .2a2.4 2.4 0 0 1-.8 1c-.3.2-.4.4-.1.8s.2.2.1.3l-.2.3a1.7 1.7 0 0 0-.2 1h-.1l-.4.5-.3-.2c-.3.1-.3-.2-.5-.3s-.7.1-.6.4a2.1 2.1 0 0 0 .9 1v.4a1.2 1.2 0 0 0-.1.9.5.5 0 0 0-.4.5c-.2-.1-.3.2-.5.1s-.4-.1-.4.2a6.4 6.4 0 0 1 0 .7h-.2c-.1.1-.1.2 0 .3v.2H5l-.3.5-.4.2c-.1.1-.1.3-.2.3-.3-.1-.6 0-.7.1-.2 0-.3.4-.5.4s-.2.2-.2.3-.2-.2-.3-.1c-.1.1-.2.2-.2.3v.7c0 .2.5-.1.4-.7s.4 0 .4.3-.1.4.2.5 0-.6.4-.6.1-.2.3-.2 0 .1 0 .2h-.3a.4.4 0 0 0-.1.3h.1c.2.2.1.5.3.8h-.7c-.2 0-.3.1-.3.3s0 .3.2.3.4.2.3.5l-.2.3a.5.5 0 0 0-.2.6h.1c.1 0 .2.1.3.2s.1-.3.2-.4a.8.8 0 0 0 .3-.6c.1-.1.1-.2.1-.3a.2.2 0 0 0 0-.2.3.3 0 0 0 .1-.2h.1c.1-.1 0-.3.1-.4a1.3 1.3 0 0 1 .2-.5h.1a1.8 1.8 0 0 1 .3-.7.4.4 0 0 0 .1-.4c0-.1 0-.2.1-.2V43c.1-.2.1-.4.3-.6v-.3l.2-.3c.1-.2.1-.4.2-.6V41h.1l.3-.3a.8.8 0 0 0 .1-.5l.2-.3.3-.2c.2 0 0-.2.1-.3s.1-.2.1-.3a.2.2 0 0 0 0-.2.7.7 0 0 0 .2-.5c.1-.1 0-.3.1-.5s0-.1 0-.2a2.9 2.9 0 0 1 .9-1.2c.3-.1.1-.3.2-.5v-.2a.3.3 0 0 0 0-.4c-.1-.3.1-.5.3-.8a1 1 0 0 0 .4-.4c.2-.1.2-.2.2-.3h.1c0-.1 0-.1.1-.2s.3-.4.3-.7h.2v-.3c.2-.3.5-.4.6-.7h.1c.2-.1.3-.2.4-.4.1-.1 0-.2 0-.4.1-.1 0-.2.1-.3s0-.2-.1-.3v-.4c.1-.2 0-.4 0-.6H11c0-.3.4-.3.5-.6s0-.1 0-.2h.3c.3-.2.1-.4.1-.6h.1a1.4 1.4 0 0 1 .4-.8h.1a1.1 1.1 0 0 0 .5-.4v-.3l.4-.3c.4-.3.9-.2 1.3-.4l.2-.2h.1c.1-.2 0-.5.3-.6s.1-.1.1-.2a1 1 0 0 0 .9-.7.1.1 0 0 1 0-.1c.2-.3.6-.4.7-.8.2-.1.2-.3.4-.4l.3-.2a.5.5 0 0 0 .3-.4h.1c.3-.3.5-.7 1-.8.2 0 .2-.1.3-.2V21h.2a.5.5 0 0 0 .3-.6c.3 0 .1-.3.3-.4h.1l.7-.3h.2l.4-.2v-.2h.3l.3-.3c.4-.2.5-.7.9-.9h.5a.7.7 0 0 0 .4-.4l.2-.3.2-.3h.6c.1-.1.2 0 .2-.2h.2l.6-.9h.1a.3.3 0 0 0 .4-.3c.1-.3 0-.9.7-.8h1.1c.3.2.6-.1.9.1s.3 0 .4-.1l.3.2h.1c.1.2.2.5.5.4a.7.7 0 0 0 .4-.7v-.3h.1a.3.3 0 0 0 .2-.3h.2c.2-.1.2-.3.3-.4v-.2h.1a.7.7 0 0 1 .4-.4l1.9-.8.4-.2c.2-.4.5-.4.9-.2s.7-.4 1.1 0l.4.4c.3.3.2.8.6 1.1v.7h.4a.3.3 0 0 1 .4.1c.1.2-.1.2-.2.2s-.2.2-.2.3-.2.6.3.8c.3.1.4 0 .5-.3a2.4 2.4 0 0 0 .8-.6l.5-.9c.1-.2.2-.5.5-.3s.3.1.4.3h.2c.2.1.2 0 .3-.1.2-.2.3-.5.5-.7a1.3 1.3 0 0 1 .5-.7 1.1 1.1 0 0 0 .7-.6c.4-.3.7.1 1 .1a.5.5 0 0 0-.1.6c.1.2.3.1.5.1h.5c.2 0 .3.1.3.3s.4.2.5.4h-.1a.3.3 0 0 0-.2.3h-.1c0 .2-.1.3.1.5h.1a.1.1 0 0 0 0 .1c.2.1.3.3.4.4v.2c.1.1.2.1.4.1s.2-.2.3-.3h.4c.1-.2.3-.1.5-.3h.4c0 .1 0 .2.1.3s-.3-.1-.4.2-.4 0-.4.2h-.1c-.2 0-.2.1-.2.3h-.1v.4h-.1a1 1 0 0 0-.2.8v.8h.1a.3.3 0 0 1 0-.1c0 .3.3.1.5.3a3.2 3.2 0 0 0 1-.5.7.7 0 0 0 .1-.4c.4 0 .2-.4.4-.5s.4.4.6.1-.3-.4-.6-.6 0-.6-.1-.9.2-.2.2-.1.5.3.5.6-.2.3.1.3.3-.1.3-.3.2-.2.3-.2v.2c-.4.1.1.3 0 .4.1.3.3.1.5.2l.4.2c.3.1 0 .4.2.6s-.2.1-.3.1v.2h-.1c-.4.3-.2.5.1.8a.9.9 0 0 1 .1.6h.4c.2-.1.5-.4.7.2a.8.8 0 0 1 .3-.5.1.1 0 0 0 0-.1l.2-.2a.7.7 0 0 0 .7-.4v-.3h-.1c0-.2.1-.3.4-.2s.1.4.3.5h.2c.2.1.4.5.8.2v-.2c.2-.2 0-.5.2-.7h.2v-.2c0-.1 0-.2-.1-.3v-.4c0-.2-.1-.4 0-.6l.2-.4a.3.3 0 0 0 .4-.2h.1c.1-.3.2-.5.5-.3a.3.3 0 0 0 .4-.1c.1-.2.3-.2.4 0a.7.7 0 0 0 .7.1h1.1c.1.2.4.2.4.5l.5.2c0 .2.1.1.3.2a1.1 1.1 0 0 1 1.2-.2l.2.2h.1c.3.2.7.3.9.7 0 .1 0 .3.1.4s.3.2.5.3.5 0 .6.3l.2.2h.1l.2.2a.8.8 0 0 0 .9.1l.7-.2v.3c.3.2.5.4.2.7a1 1 0 0 0-.1.4h.1c.1.1.1.3.3.3s.6-.2.8.3a1.8 1.8 0 0 0 1.2.4h.1c.1.4.5.1.7.3h.3c.4 0 .5.3.5.6a1.6 1.6 0 0 0 .2.8h.1l-.2.3c-.3.4-.2.8.2.9.3.2.8.1 1.1.5s.4.1.5.3c.1.1.3.1.4 0l.4-.3h-.1a.3.3 0 0 1 .2-.3c.5-.3.9-.2 1.5.4.2.3.3.6.6.7v.2h.1c0 .2.2.2.3.4h.1a1.2 1.2 0 0 0 .2.8h.1a.4.4 0 0 0 0 .1c-.1.4.2.9 0 1.3a.5.5 0 0 0 .1.4c.1.2.2.4-.2.4s-1.2.6-1.9.6a.3.3 0 0 0-.3.2c-.1.2 0 .4 0 .6H73a1.7 1.7 0 0 0 .3.6v.8c0 .4 0 .7.5.4h.3c.1.2.3.1.4.1.2-.1.2-.4.3-.6.2 0 .4 0 .5-.1s.3-.2.5-.1-.2.3-.1.5h-.1c-.2.2 0 .3 0 .5a.5.5 0 0 1 .2.4.6.6 0 0 0 .1.5c.2.2.4 0 .6.1h.1c.3.1.4-.3.7-.3.2.3.5.1.8.3.3 0 .4.2.4.4.1.2 0 .4-.1.6v.2a7.6 7.6 0 0 1-.4 1.3h.1c0 .1-.2.1-.1.3s.2.4.4.5v.2c.2.1.5 0 .7.1.1.1 0 .3.2.4s0 .3.2.4.2.3.3.5h.2c.1.1.2.1.3.1h1a.1.1 0 0 0 0 .1 1.1 1.1 0 0 1 .2.5 6.8 6.8 0 0 0 .1.9c.3.1.3.3.4.5v.2h.4c0 .2.2.2.2.1s.5-.5.4-.9v-1c0-.3 0-.3.2-.3s1-.1 1.4.4h.2a.8.8 0 0 1 .2.9c-.1.1-.2.2-.2.4s-.2 1.3 0 2.1.1.6.6.3h.3c.3-.2.6-.6 1-.3l.3.4c.2-.2.5-.3.5-.5s.3-.2.4-.2l.4.3h.1c.1.3.5.2.6.5s.1.3.3.3l.2.2.3.2h.1c0 .2.3.3.3.5a2.6 2.6 0 0 0 .3 1.4c.2.3.3.8.5 1.1s.6-.2.8.1a.4.4 0 0 1 0 .5l-.3.3c-.1.1-.2.1-.2.3-.2.2.1.6-.3.7s-.2.3-.1.5v.2a2.3 2.3 0 0 1 .9.7h.2c.2 0 .4 0 .5-.3h.1c0-.1 0-.2.1-.3l.4-.3h.3c.3 0 .4.1.3.4a4.8 4.8 0 0 0 0 .8h-.4c-.2.5-.3 1-.7 1.4h-.1a.6.6 0 0 0 .1.9v.2c.3.2.4.4.1.6s0 .1 0 .1a3.6 3.6 0 0 0 .2 1.1c-.1.2.2.5-.1.7h-.3c0 .3.1.6-.1.9s0 .2.1.3a.4.4 0 0 1 .2.3h.3v.2a1.2 1.2 0 0 0 1.5-.2c.2-.2.2.2.3.2 0 .2.1.4.1.7a.3.3 0 0 0 0 .5v.2c.1.2.6.5-.1.6s-.4.8-.2 1.1a1.3 1.3 0 0 0 .4.7V59.5c-.1.2-.3.3-.3.6v.6c.3.3.5.6.1 1s0 .1 0 .2h.2v.2c-.2.5 0 1.1-.2 1.6-.1.2-.4.5-.1.8a1.2 1.2 0 0 1 .4 1.4 4.1 4.1 0 0 0 0 .9H95V68c-.1.4-.7.5-.6 1.1-.2.3-.1.7-.3 1.1s-.1.1 0 .2v1c0 .3 0 .3-.3.2h-.3v.3a.5.5 0 0 1-.5.2c-.4-.3-.4 0-.5.3h.1c.1.1.3.2.3.4a.5.5 0 0 1 .3.4.6.6 0 0 0 0 .5c-.2.2-.1.5-.2.7-.1.2-.2.5-.6.2h-.2c-.2 0-.2.1-.1.3s0 .4.1.6-.2.4-.5.4a.2.2 0 0 0-.2.2c-.2 0-.3.1-.2.3v.6a.9.9 0 0 1 0 .8v.2a4.6 4.6 0 0 1-.4.8h.1v.3l-.2.2v.2c-.2.4-.5.2-.8.2h-.4a.8.8 0 0 0-.2.6c.1.3-.1.5 0 .8-.1.3 0 .8-.5.9s-.1-.8-.4-1.1-.2-.7-.7-.4c-.1.3-.1.6-.4.7-.1.1-.4-.1-.5.2-.2 0-.2.2-.3.3h-.2v.7c0 .3.2.2.4.3s.4 0 .6.2v.2l.2.3a.7.7 0 0 1-.1.7c-.2.1-.2.3-.2.5l-.2.6H87v.6c-.1.1-.1.4-.3.4a.7.7 0 0 0-.4-.6c-.2-.5-.4 0-.6-.1a.4.4 0 0 0 .1.5v.2c.1.2.4.3.3.6a.7.7 0 0 0-.2.6c.2.7-.1 1-.6 1.3-.3 0-.4.2-.5.4H84c-.1.1-.3.3-.5.2s0-.3-.1-.5.2-.7-.1-1.1-.3.1-.4.1v.2c-.2 0-.2.4-.5.4a.3.3 0 0 0-.1.3c-.1.4-.3.7-.1 1.2-.1.3.1.7-.1 1-.1.1-.1.2-.3.2s-.5.3-.8.3h-.1c-.1.2-.4.3-.4.6l-.3.3v.3c-.1.1-.3.2-.3.4s-.7.2-1.1.4l-.2.2h-.1a1 1 0 0 1-.5.6c-.2 0-.3 0-.4.2h-.5c-.3-.2-.2.1-.3.2s-.2.3-.3 0H76c-.3 0-.2.3-.4.5s-.2-.1-.3 0 .2.3.1.4a.2.2 0 0 1 0 .1v.8c0 .3-.4.1-.5.3h-.2v.2l-.3.3v.8l-.9.4H73c-.3.2-.7.2-.9.6H72c-.2 0-.4-.2-.6 0H71c-.2-.1-.3 0-.5 0a.2.2 0 0 1-.1.3l-.2.2c-.1 0-.3 0-.3.2l-.3.3a.5.5 0 0 0-.2.3l-.4.2c-.1.2-.4 0-.6.2a2.9 2.9 0 0 0-1.3.1h-.3c-.4.3-1 .1-1.3.6H65c-.2.1-.4.1-.5.3s-.4.2-.5.4-.2.2-.3.3h-.2l-.3.3c-.2.2-.5.2-.6.5-.1.1-.2.1-.3 0H62l-.2-.2c-.2-.1-.3 0-.4.1s-.2.2-.4.2a1.3 1.3 0 0 0-1 .2c-.3-.1-.5.1-.7.1a.4.4 0 0 0 0 .1l-.3.2-.2.2h-.2a.5.5 0 0 0-.5.1h-.3c-.1-.1-.1-.2-.2-.1a1.6 1.6 0 0 0-.6 1.1c-.1.2-.3-.1-.4.1s-.3.2-.4.4-.3.1-.3.3h.1c.5.2.3.6.3.9s-.1.3 0 .5h.1a.2.2 0 0 0 .1.2h.5c.2 0 .2.2.4.3s.3-.2.5-.4c.3.3.5.5.8.1h.1c.2-.2.4-.2.6-.3h.1l.6.2v.2h.8a1.3 1.3 0 0 1 1 .2h.1c.4.4.9.3 1.4.3.3.2.5.4.9.2a6.7 6.7 0 0 1 1.7-.5l.5-.2c.1.1.3.1.4.1.1 0 .2.1.3-.1H69a1.2 1.2 0 0 0 1.3-.8c.3-.1.5-.4.9-.2s.2-.1.3-.2h.3a.7.7 0 0 1 .6-.3h.1c.1 0 .3.1.4-.1a1.5 1.5 0 0 1 1.1-.3h.2c.2 0 .2-.2.3-.3s.6-.1.9-.2c.4-.2.9-.1 1.2-.4l.5-.3h.1c.2-.3.6-.2.8-.4.3-.3.6-.6 1.1-.5h.3l.5-.4a.8.8 0 0 1 .7-.3.3.3 0 0 0 .3.2c.1-.2.4-.1.4-.3a1.6 1.6 0 0 1 .5-.6h.6a1.5 1.5 0 0 0 1.1.3v-.3c.2 0 .2-.2.3-.3a.2.2 0 0 1 .1-.3.3.3 0 0 0 .1-.4v-.2h.4a.3.3 0 0 0 .3-.3h.3c.1-.9.1-.9 1.1-.8s.6.1.8-.2 0-.6.5-.6l.2-.2a1.4 1.4 0 0 1 .5-.9l.6-.6v-.2h.1c.1-.2.5 0 .5-.4h.1a1 1 0 0 0 .4-.5c.3-.1.6-.2.8-.6h.1c.1 0 .1-.1.1-.2h1.1l.3.3c.1.1.1.2.3.2s.2-.2.2-.3v-.2a.9.9 0 0 0 .1-.6.4.4 0 0 0-.1-.3 1.1 1.1 0 0 1 .3-1c.3-.2.5-.2.7.2h.4c.4-.3 0-.5-.1-.7s0-.5.2-.7h.7a.9.9 0 0 1 .9.2c.1.1.2.3.3.4a.2.2 0 0 0 .2-.2h.6c-.1-.1 0-.3-.3-.4l-.3-.3H96c0-.3 0-.7.2-.9h.6c.2-.2.5-.2.5-.6h.2v-.2c0-.4.2-.8.2-1.2.1-.1.2-.2.4-.2.1-.1.2-.1.1-.3s.6 0 .9-.3.3-.6.7-.5v-.2l.2-.2.2-.4a3.4 3.4 0 0 0 0-1.5l-.2-.2c-.2-.1-.2-.4-.2-.6l.2-.3c.1-.1.2-.1.2-.3s.2-.2.1-.3-.1-.5.3-.5v-.2a.7.7 0 0 0-.1-.4.2.2 0 0 0 0-.1c.1-.3.4-.5.3-.8s.3.1.4-.1a.8.8 0 0 1 .7 0l.3.2c.4 0 .3-.4.6-.5s.1-.5.4-.7.3-.2.2-.3-.1-.6-.2-.9-.2-.3-.4-.4c-.1-.3.1-.4.3-.6s0-.7.3-.9l.2-.4c.1-.2 0-.3-.1-.4-.2-.3.2-.5.2-.8.1-.2.2-.4.2-.6a1.9 1.9 0 0 1-.1-.9c.2-.3.2-.7.6-.9h.2c0-.6.1-1.2.7-1.4h.1c0-.2 0-.4.3-.5s.2-.2.2-.4a8.2 8.2 0 0 1 .1-1.4h-.1a2.1 2.1 0 0 1 .4-1.3c.2-.2 0-.7.5-.8h.4v-.2c.1-.3 0-.7.3-1a.1.1 0 0 0-.1-.2h-.1a.3.3 0 0 0-.2-.3c-.6-.3-.6-.4-.5-1 .1-.3.2-.6.7-.5a.3.3 0 0 0 .3-.5v-.5a.5.5 0 0 1 .6-.5c.3.1.7-.1.6-.4a1.5 1.5 0 0 1 .2-1.1 4.5 4.5 0 0 0 .1-.6c0-.2.1-.3.2-.3a10.5 10.5 0 0 0 1.2-.2c.1 0 .2 0 .2-.1a8.8 8.8 0 0 0 0-2.7zM.7 39.5zm.1.9zm.9-2.3a1.7 1.7 0 0 0 0 .6c-.1 0 0-.1 0-.1s0-.4-.1-.5.1-.1.1 0zm3.4-1.5zm-2-.4c0-.1 0-.2-.1-.2s-.1-.3-.2-.5a1.2 1.2 0 0 1 0-.2h.4c.2.4.1.9.2 1.3s-.6 0-.3-.3zM9.6 25zM5.3 42.5zM4.1 44zm0-.9H4zm.6 1.3zm7.2-16.7zm73.6 13.6zM68 19.1zm-48.2 0zm8.2-8.6zm22.4-8.4zm53.7 31.3zM26.9 11.6zM103 31.7zm-6.3 58.6zM70 20.3zm-19.9-6.2zm52.4 63.3zM64.2 107zm13.7-11.3zM48.4 13.6zm-9.8-.4zm-14.9.9c-.1-.1 0-.1 0-.2s0-.3.2-.2.5.1.7.4c-.2.3-.2.6-.5.8s.3-.3 0-.4-.4.1-.4.3l-.2.3c0-.1-.1-.2.1-.2a.4.4 0 0 0 .2-.4c0-.1 0-.2-.1-.3zm52.8 14zm19.6 41zM48.2 3.8zm53 26.5zm-27.5 72.5zm1.1-1.6c-.1-.2-.1-.3.1-.4a1.6 1.6 0 0 0-.1.4zM86 34.6zm-4.1-.1zM55.1 12.7zM39 11.6zm12.1-7zm47.4 20.8zm4 48.7zM96.1 54zm-4-12.3zM78.4 26.4zm1.3 1.9zM39.8 10.2zm-1.4-4.4zm.8 3.5zm0-1.1zm-.7-.6zm-.5 0zm3.6-.7zm-3.6.7zm2.6 1.9zm19.5-2.2zM56.4 9zm26 4.2zm6.1 3.4v-.1zm.1-.5zm10 11.8zm-18.2-1.7zm-7.6-14.1zm-1.1-.7zM106 57zm-.3.6zm-5 13zM77.6 23.8s.1 0 0 0zm15.2-2.5zm13.5 33.2zM96.1 77.9zm-.5-37.3a.2.2 0 0 1-.1.1zm2.8 16.1a.1.1 0 0 1 0 .1zM81.6 26.6zm22.6 26.3zm.6 1.6zm-.6-1.6zM91 25.6zm-.8-.1zm.1 1.1zm6.3 7.4zm5.7 23.9zm-.5-2.4zm-1-.7zM99 49.7zm-1.5-13.1zm3.2 17.3zm-1.3-14.3zm1.4 20.5zm0-12.3zm-.1-3.1zm.3-.2zm-3-9.7zM90 25zm-4.6 2.1zm-.2-6.9zM83 24.3zm2.1-3.1zm-.3 1.6zm.9 4zm0 0zm1.3-3.3zm0 0zm10.4 15.2zm-.3 5.4zM84.6 24.7zm8.5 5.6zm3.1 6.3zm3.7 17.2zM97 33.1zm-9.7-9zM81 19.9zm4.3 8.4zm14.5 28.8zm.1-20.3zM81.4 23.9zm2.6 1.7zm5 3.6zm7.3 12.4zm8.4 8.5zM92.8 26.8zm-8-6.8zm-4.7.8zm2.2 6.4zm6.1 2.2zm10.2 44.1zm6.2-23.1zm-3.3-6.8zm-.6-3.5zm-2.6-9.7zm-18-11.6zm-2.2.4zm.1 4zm4.5 4.2zm3.6.8zm7.5 9.1zM99 69.5zm4.6-10.3zm.6-10.1zM90.8 22.3v-.2zm-5.1-4.8zm-9.8.5zm1.6 5.4zm16.3 14zm1.8 3.3zm1.8 30.1zm-1.1 9.6zm-5.1-59zm-3.2-2zm-8.2-4.9zm-2.8 1zm-1-.8zm0 0zm1.1 7.9a.1.1 0 0 1-.2-.1zm4 6.3zm1.6-.3zm5.3 4l.2-.2zM96.5 47zm1.2 23zm5.3-32zM91.1 21.4zm-9.9-8zm-1.5 1.1zM67 8.2zm3.9 6.6zm9.6 11.4zm2.9 3.5zm14 34.5zm2.3 7.8zm2.6-3.3zM90.6 19.5zm-.3-.7zm-13-6zm3 13.9zm4.8 5.8zm3.5-.8zm5.9 8.5zm4 22.6zM96 75.1zm1.3 3.5zm9.2-20.6zm-2.2-15.3zm-1.1-4.1zM87.9 18zM61.4 9.1zm-7.7 1.2zm6.1-3.6zm10.6 10.8zm1.9-.7zm1.1.5zm4.6 7.8zm.7-.9zm17.5 47.7zm-.3 1.9zm-2.4 10zM92.3 81zm-4.5 8.3zm3.1.6zm3.7-3.3zm8.1-21.1zm4.1-17.1zm-1.3-3.4zm-7.9-18.4zm-6.6-9zm0-.9zm-8.7-3.5zm-9-2.2zm-3.8-2.8zm-.6-.1zM66.7 7zM45.8 8.1zm0 0zm7.4 6.5zM80 27.5zm0 0zm10.4 11.7zm4.7 35.4zm-5.2 13.6zm-3.3 6zm2.6-2.5zm1.4-.3zm.1-.2zm1.1-4zm14.9-37.8zm-3.2-4.4zm-7-21.5zm-1.8-.2zm-4.9-6.5zM84 13zM68 7zm-23.7-.8zm1.2 3.9zm7.7 3.9zm8.2-3.4zm.7.1zm5 3zm5.8 5.3zm14.7 16.3zM96 69.9zm-5.5 16.6zm-2.7 1.4zm-4.4 10.2zm7.7-5zm.4-4.7zm10.9-21.7zm5.2-10.7zm-.8-10.7zm-3.2-10zm-12-19zm-1.4-.9zm-1.4 0zm-32.7-10zm-9.1.2zm-.1.6zm7.3 8.2zm0-1.9zm.6-.1zm32.3 22.9zm.7.1zm3.4 7zM96.1 54zm-2.2 26.5zM78 99.2zm.6-2.3zm3.1 2.9zm14.9-15.3zm2.3-3zm4.3-13.9zm1.7-30.2zM66.4 5.3zM39.8 3.7zm21 9.1zm9.4 6.8zm2.3.7zM86 37.2zm-3 57.5zm-15 9.1zm.3-.3zm-.8-.8zm11.8-1.3zm5.3-3.4zm5.3-3.9a.1.1 0 0 1 0-.1zm12.9-21.3zm1.9-7.4zm.7-1.6zm1.6-3.2zM100.5 27zM92 17.9zM64 5.5zM40 2.2c-.1.1-.2.3-.4.2a.3.3 0 0 0 .1-.3h.2a.4.4 0 0 0 .1.1zm-3.2 5.1zM62 14.2zm.3.3zm.8.3zM86.9 38zm4.3 5.6zm3.1 8.3zm0 23.8zm-3.7 5.5zm-7.2 11.3zm-.3 1.8zM81.5 93zm-6.4 7.2zm-6.8 3.2zm19-6.2a.2.2 0 0 1 0 .2zm5.2-5.1zm2.2-2.1zM94 18.6zm-12-8.5zm-3.7-.8zm-4-.1zM52.7 5zm-5-1.5zM31.4 8.7zm-.6 3.2zm-1.7.6zm-1 0zM35 9.2h-.2zm-8.3 3.2zM24 15.2zm-1-.5zm63.8 24.7zm-9 57.3zm-3.4 2.9zm-15 6.8zm3.8-1.5v-.1zm1.1-1zm-.1 3zm11.4-2.2zM99.8 81zm0 0zm7.7-20.9zm-.1-11.8zm-.3-5.5zm-46-40.2zm-7 .9zM30.9 13.9zm17.5-.3zm25.3 8.7zm5.6 9.7zm6.1 8.1zm7 37.6zm-14.6 18zm-12.3 6.9zm-5.8 2.3zm12.1.2zm4.2-1.4zm21.4-14.6zm11.4-30.3zM75.7 9.1zm-5.3-2.9zM43 3.6zm-12.9 6.5zm-9.3 8zm0 0zm.1.2c.1.1.2.2.1.3h-.2a.4.4 0 0 1 .1-.3zm.5-.3zm4.2-2.3zm21.7.2zm26 6.7zm5.5 12.1zm5.4 1.8zm9.3 18zM94.8 69zM91 79.9zM75.7 96.6zm-7.4 10zm12.3-3.7zm5.7-3.1zm.3-.3zm1.9-2.2zm14.1-18.6zm1.6-8.3zm-8.6-50.2zm-2.3-2.8zm-.5-1.3zm-26-12zM32 8zm1.8 3.6zm13.4 2zm0 .1zm-.3 2.7zm29 13.6zm-3.6 69.3zm-3.5 1.8zm7.9 3.5zm32.2-47.4zm-.8-7.5zM94.9 19.4zm-74.7-.5l.3-.2a.5.5 0 0 1 .1.3h-.4zm-.1-.1H20a.7.7 0 0 0 0-.7c.3.1.1.4 0 .7zm-4.2 4.5zm0-.1zm1.5-.8a.8.8 0 0 1 0-.5c.2 0 .1-.3.3-.3a.5.5 0 0 1 .2.3c-.2.1-.3.2-.1.4zm20.5-8.7a.1.1 0 0 1-.1 0zm7.8-.9zm1.9 1.2zm-.7 2.2zm1.4.8zm4.6.2h-1c-.1-.1-.1-.2-.1-.3a.3.3 0 0 0 .1-.2.1.1 0 0 0 0-.1 1.2 1.2 0 0 1 0-.5c.2.1.3-.1.3-.3a.9.9 0 0 0 0-.4 1.7 1.7 0 0 1 .1.7.7.7 0 0 0 .2.6h.5a.9.9 0 0 1 0 .3zm4.9-2.7zm7.2 2.9zm28 38.3zm1.8 3.3zm-9 27.6zm-2.4 1.8zm0 .2zm3.8 10.8zm12-13.2l-.4.3h-.3c-.1-.3 0-.6-.3-.8h-.1c0-.1 0-.2.2-.1h.7c.2.1.3.1.4 0a.3.3 0 0 1-.2.5zm3.4-6.2zm3.9-16.4zM45.7 108.1c-.2-.1-.1-.3-.1-.4.1-.5-.2-.9-.1-1.3h-.7l-1.1-.5H43s.1-.1 0-.1-.5 0-.7-.2h-.2a.6.6 0 0 0-.7 0h-.2c-.1-.2-.1-.3-.4-.2s-.3.3 0 .4l1.3.4c.4.1.6.5 1.1.4.1.1.2.1.3.1h.2c-.1.2.2.3.2.5s.2.9 0 1.4h-.1a.3.3 0 0 0-.3-.2c-.1 0-.2 0-.2-.2s0-.3-.2-.3-.2.1-.3.2l-.2.2c0-.3-.2-.4-.5-.3h-.4c0 .2-.1.4.2.4s.2.1.2.2h.6c.3 0 .6-.1.8.1h.2c.1.2.2.1.3 0h.7c.1.1.2.1.4 0a.5.5 0 0 1 .5 0c.2-.3.4-.4.1-.6zm-1.3-1.3zM27.9 104l-.6-.5c-.1-.1-.1-.1-.2.1s-.2.1-.3 0-.2-.1-.3.1a1.1 1.1 0 0 0 .7.3c.2 0 .4 0 .5.3h.1c.1-.1.3.2.4 0s-.2-.2-.3-.3zM35.4 107.5c-.3.1 0 .2 0 .3a.5.5 0 0 0 .6 0l.2-.2c-.2-.2-.5-.1-.8-.1zM34.6 106.9c-.2 0-.2.2-.2.3h.1c.1 0 .3 0 .3-.2s-.1-.1-.2-.1zM108.3 34.6c.3 0 .4-.2.4-.5s-.2-.6-.5-.6-.5.2-.5.5a.7.7 0 0 0 .6.6zM1.9 54h-.2c.2.1-.2.4.1.5H2c0-.1-.1-.2 0-.4s0-.1-.1-.1zM40.5 104.6c.3.1.2-.1.2-.2v-.2l-.7-.3v-.2a1.8 1.8 0 0 0-1.4-.5.7.7 0 0 0-.8 0c-.2.3.1.3.3.3s.6.2.3.6a.3.3 0 0 0 0 .3c.3-.1.3-.1.6.1a.3.3 0 0 1 .2.3l.2-.2h.1c.3 0 .3.3.6.3s.1-.3.4-.3zm-1-.7zM40.4 108.2c.1.2.3.2.5.1a.6.6 0 0 0-.1-.4c-.1.1-.7-.4-.4.3zM39.3 107.8h-.4c-.1.1-.3 0-.2.2v.2c.2.2.3.1.5-.1h.2c.2 0 .4.1.5-.1a.1.1 0 0 0 0-.1.5.5 0 0 0-.6-.1zM39 107.4h.1a.2.2 0 0 0 .2-.2h.1a.2.2 0 0 1 .1-.2h.1c.1-.1.1-.3 0-.4a.4.4 0 0 0-.4 0c-.2.1-.1.3 0 .4v.2c-.2 0-.2.1-.2.2z" fill-rule="evenodd" fill="#3498DB" style="fill: rgb(52, 152, 219);"></path><path d="M2.9 46.2c-.3.1-.4-.4-.7-.4s.1.4 0 .5 0 .1.1.1.6.1.6-.2zM13.4 23.6c.1-.1 0-.2 0-.3-.2-.1-.2-.3-.3-.4H13c-.2.1-.4.2-.4.5s.1.3 0 .3-.2.3-.4.4.1.3 0 .4.3 0 .3-.1.3-.2.6 0v-.9c.1-.1.2.2.3.1zM37.7 107.9a.4.4 0 0 0 .4.3c0-.2-.1-.3-.4-.3zM24.3 99.4c-.1 0-.1-.2-.1-.2h-.1c-.2.5 0 .9.4.9s-.2.5.1.7a1.3 1.3 0 0 1 0-.3c.2-.7.2-.8-.3-1.1zM3.4 40.5h.3c-.1-.4-.3-.6-.8-.3s.3.8.2 1.2.3-.6.3-.9zM2.3 42.4h-.2v.2h.3v-.2c.2.1.1-.4.4-.1s.1-.1.2-.2-.6-.4-1-.5a.6.6 0 0 1 .3.8zM2.5 39.2c-.1 0-.3.1-.2.2s0 .6.2.9h.1c0-.1-.1-.3.2-.4s.2-.2.1-.4-.3 0-.4-.3zM4.3 40.3h-.1c-.2.1-.1.2-.1.4.2-.2.2-.3.2-.4zM4.1 40.6zM18.6 19.2c.1 0 .1-.1.1-.2v-.2s-.2.1-.2.2 0 .2.1.2zM6.9 35.9c0 .1.2.1.3.2h.1c.1-.2-.2-.3 0-.5s-.2.2-.4.3zM7.1 31.5c.2-.1.5-.3.3-.6s-.4.3-.7.3.3.4.4.3zM6.7 29.8h.2c-.1-.1.1-.4-.2-.5s.1.4 0 .5z" fill-rule="evenodd" fill="#3498DB" style="fill: rgb(52, 152, 219);"></path><circle cx="6.7" cy="29.4"></circle><path d="M8.1 30.4l-.2-.2a.6.6 0 0 0-.1.4c.2.1.4.2.3-.2zM1.9 39.5a.5.5 0 0 0 .3-.3H2c0 .1-.2.2-.1.3zM63.4 3.6zM8.7 27.8a.5.5 0 0 0 .6-.3l-.3-.2c.1.3-.4.2-.3.5zM5.6 39.5c-.1 0-.2-.1-.2.1s0 .2.1.1.1-.2.1-.2zM7.4 33.5h.4a1 1 0 0 1 .2.5c.4 0 .5-.4 1-.5a.5.5 0 0 1-.5-.8c-.2-.1-.5-.3-.6 0a1.5 1.5 0 0 0-.1.7 4.6 4.6 0 0 1-.1-.8c.4 0 .5-.2.6-.5v-.4h.2c.2-.2-.1-.1-.1-.2l-1.4.4a.1.1 0 0 0 0 .3c.6.2.2.5.1.7s0 .5.3.6zM6.8 34.2c-.1 0-.1.2 0 .2s.3.4.6.5v-.2c-.1-.1-.1-.2-.1-.3s.3-.5 0-.7-.2.4-.5.5zM8.6 30.1c-.3 0-.1.4-.4.5a.4.4 0 0 0 0 .4c.3 0 .5-.6.4-.9zM6.6 33.9c.1-.3.1-.3-.1-.7l-.4.4c.3 0 .3.3.5.3zM5.5 33c0 .1 0 .1.1.1h-.1zM82.3 90.2zM107.6 60.1zM14.9 22.2h.1c.1-.1 0-.2-.1-.3s-.1.1 0 .3zM2.7 42.7h-.2c0 .1.1.1.2.1z" fill-rule="evenodd" fill="#3498DB" style="fill: rgb(52, 152, 219);"></path><circle cx="64.2" cy="107" transform="rotate(-63.4 64.296 107.036)"></circle><circle cx="50.1" cy="14.1"></circle></g></g></svg>