<svg height="512pt" viewBox="-6 0 512 512" width="512pt" xmlns="http://www.w3.org/2000/svg"><path d="m0 261.621094c0-138.101563 111.808594-250.089844 249.839844-250.378906 138.289062-.289063 250.109375 110.605468 250.914062 248.894531.589844 101.3125-59.003906 188.769531-145.117187 228.722656-5.070313 2.351563-10.882813 2.644531-16.105469.652344-27.699219-10.558594-57.75-16.347657-89.152344-16.347657s-61.453125 5.789063-89.148437 16.347657c-5.222657 1.988281-11.035157 1.699219-16.101563-.652344-85.695312-39.757813-145.128906-126.554687-145.128906-227.238281zm0 0" fill="#6ad3d8"/><path d="m223.808594 20.4375v51.097656h-61.316406v-51.097656c0-11.285156 9.148437-20.4375 20.4375-20.4375h20.441406c11.285156 0 20.4375 9.152344 20.4375 20.4375zm0 0" fill="#92c927"/><path d="m98.109375 122.632812h304.542969l-46.949219 366.183594c-32.019531 14.867188-67.699219 23.183594-105.324219 23.183594s-73.304687-8.316406-105.324218-23.183594zm0 0" fill="#ffdea4"/><path d="m413.890625 107.304688v20.441406c0 7.964844-6.078125 14.507812-13.851563 15.253906l-44.335937 345.816406c-32.019531 14.867188-67.699219 23.183594-105.324219 23.183594-19.683594 0-38.832031-2.277344-57.207031-6.574219l-46.457031-362.351562h-44.519532c-8.464843 0-15.328124-6.863281-15.328124-15.328125v-20.441406c0-8.464844 6.863281-15.328126 15.328124-15.328126h8.175782v-15.328124c0-8.46875 6.863281-15.332032 15.328125-15.332032h249.359375c8.464844 0 15.328125 6.863282 15.328125 15.332032v15.328124h8.175781c8.464844 0 15.328125 6.863282 15.328125 15.328126zm0 0" fill="#fff2b4"/><path d="m413.890625 107.304688v20.441406c0 8.464844-6.863281 15.328125-15.328125 15.328125h-251.402344c-8.464844 0-15.328125-6.863281-15.328125-15.328125v-20.441406c0-8.464844 6.863281-15.328126 15.328125-15.328126 4.515625 0 8.175782-3.660156 8.175782-8.175781v-7.152343c0-8.46875 6.863281-15.332032 15.332031-15.332032h204.390625c8.464844 0 15.328125 6.863282 15.328125 15.332032v15.328124h8.175781c8.464844 0 15.328125 6.863282 15.328125 15.328126zm0 0" fill="#fff5f5"/><path d="m368.058594 408.78125h-235.359375c-2.570313 0-4.742188-1.910156-5.066407-4.457031l-24.894531-194.171875c-.390625-3.054688 1.988281-5.761719 5.066407-5.761719h285.148437c3.078125 0 5.460937 2.703125 5.066406 5.761719l-24.894531 194.171875c-.324219 2.546875-2.496094 4.457031-5.066406 4.457031zm0 0" fill="#fd7d43"/><path d="m182.277344 408.78125h-49.578125c-2.570313 0-4.742188-1.910156-5.066407-4.457031l-24.894531-194.171875c-.390625-3.054688 1.988281-5.761719 5.066407-5.761719h49.578124c-3.082031 0-5.460937 2.703125-5.070312 5.761719l24.894531 194.171875c.328125 2.546875 2.496094 4.457031 5.070313 4.457031zm0 0" fill="#fc6930"/></svg>